# xmcd
#
# Track frame offsets:
#	150
#	4963
#	21935
#	44534
#	50321
#	72395
#	85720
#	103439
#	116273
#	132531
#	151600
#	163194
#	183334
#	196782
#	225010
#	283695
#	305843
#
# Disc length: 4360 seconds
#
# Revision: 1
# Processed by: cddbd v1.5.2PL0 Copyright (c) Steve Scherf et al.
# Submitted via: audiograbber 1.83.01
#
DISCID=e1110611
DTITLE=Joe Dolce - Memoirs Of A Mouth Organ
DYEAR=1997
DGENRE=Blues
TTITLE0=Pundulumura Dreaming
TTITLE1=Lickity Split
TTITLE2=I Don't Live Today
TTITLE3='Armonica Fahntah-C In B-Minor
TTITLE4=Edge Of A Miracle
TTITLE5=Ode To Diana
TTITLE6=Overture From The Black Telephone
TTITLE7=Stillborn
TTITLE8=Vive L'Inspecteur Clouseau
TTITLE9=The House Is Burning
TTITLE10=Un Homme Jaloux
TTITLE11=Nuclear Junkman
TTITLE12=Vafanculo Polka (Blues Harp Version)
TTITLE13=Father
TTITLE14=Miles' Delight - 1997
TTITLE15=Remembering The Headstone Circus - 1969 (Blues Harp Solo)
TTITLE16=La Flamme Renaissante
EXTD=
EXTT0=
EXTT1=
EXTT2=
EXTT3=
EXTT4=
EXTT5=
EXTT6=
EXTT7=
EXTT8=
EXTT9=
EXTT10=
EXTT11=
EXTT12=
EXTT13=
EXTT14=
EXTT15=
EXTT16=
PLAYORDER=
